<?xml version="1.0" standalone="no"?>
<!DOCTYPE svg PUBLIC "-//W3C//DTD SVG 20010904//EN"
 "http://www.w3.org/TR/2001/REC-SVG-20010904/DTD/svg10.dtd">
<svg version="1.0" xmlns="http://www.w3.org/2000/svg"
 width="348.000000pt" height="626.000000pt" viewBox="0 0 348.000000 626.000000"
 preserveAspectRatio="xMidYMid meet">

<g transform="translate(0.000000,626.000000) scale(0.100000,-0.100000)"
fill="#000000" stroke="none">
<path d="M2830 5830 c0 -6 42 -10 105 -10 63 0 105 4 105 10 0 6 -42 10 -105
10 -63 0 -105 -4 -105 -10z"/>
<path d="M476 5799 c-59 -47 -4 -131 68 -103 29 11 17 23 -17 17 -40 -6 -62
15 -53 51 7 29 37 41 65 27 11 -6 22 -7 25 -2 5 7 -35 31 -53 31 -5 0 -20 -9
-35 -21z"/>
<path d="M602 5768 c-17 -17 -15 -53 3 -68 38 -31 96 27 65 65 -15 18 -51 20
-68 3z m48 -13 c16 -20 6 -45 -19 -45 -23 0 -32 18 -19 43 11 21 22 22 38 2z"/>
<path d="M700 5735 c0 -25 5 -45 10 -45 6 0 10 15 10 34 0 20 6 36 14 39 20 8
26 -2 26 -40 0 -18 5 -33 10 -33 6 0 10 15 10 34 0 20 6 36 14 39 20 8 26 -2
26 -40 0 -18 5 -33 11 -33 6 0 9 17 7 43 l-3 42 -67 2 -68 3 0 -45z"/>
<path d="M865 5720 c0 -33 3 -60 8 -60 4 0 7 9 7 20 0 16 5 19 24 14 23 -5 56
16 56 37 0 30 -22 49 -58 49 l-37 0 0 -60z m65 35 c17 -20 5 -45 -20 -45 -11
0 -23 7 -26 15 -6 15 11 45 26 45 4 0 13 -7 20 -15z"/>
<path d="M987 5773 c-12 -11 -8 -60 6 -70 6 -6 27 -10 45 -10 31 0 32 2 32 44
l0 43 -38 0 c-21 0 -42 -3 -45 -7z m53 -18 c16 -20 5 -45 -20 -45 -14 0 -20 7
-20 23 0 38 18 48 40 22z"/>
<path d="M1101 5733 c1 -43 2 -45 8 -17 15 61 41 70 41 14 0 -16 5 -32 10 -35
6 -4 10 12 10 39 0 46 0 46 -35 46 l-35 0 1 -47z"/>
<path d="M1206 5744 c9 -20 13 -47 10 -60 -4 -13 -2 -24 2 -24 11 0 63 113 55
120 -3 3 -8 0 -10 -6 -2 -6 -10 -20 -18 -30 -13 -18 -14 -18 -24 9 -6 15 -15
27 -20 27 -6 0 -3 -16 5 -36z"/>
<path d="M2835 5770 c-3 -5 0 -13 8 -15 24 -10 187 -1 187 10 0 14 -186 19
-195 5z"/>
<path d="M2830 5700 c0 -6 42 -10 105 -10 63 0 105 4 105 10 0 6 -42 10 -105
10 -63 0 -105 -4 -105 -10z"/>
<path d="M470 4745 l0 -115 55 0 c48 0 55 2 55 20 0 16 -7 20 -35 20 l-35 0 0
95 c0 88 -1 95 -20 95 -19 0 -20 -7 -20 -115z"/>
<path d="M1532 4748 c3 -98 5 -113 21 -116 15 -3 17 7 17 112 0 110 -1 116
-20 116 -20 0 -21 -5 -18 -112z"/>
<path d="M643 4790 c-76 -46 -42 -160 48 -160 29 0 43 7 63 31 42 50 29 110
-29 134 -44 19 -44 19 -82 -5z m79 -37 c26 -23 23 -59 -7 -79 -23 -15 -27 -15
-50 0 -29 19 -32 51 -8 78 20 22 41 23 65 1z"/>
<path d="M865 4800 c-3 -6 -17 -7 -31 -4 l-24 6 0 -86 c0 -79 2 -86 20 -86 18
0 20 7 20 65 0 53 3 67 18 72 20 8 33 24 26 35 -7 11 -22 10 -29 -2z"/>
<path d="M971 4799 c-36 -14 -50 -39 -51 -86 0 -52 34 -83 89 -83 32 1 71 18
71 33 0 12 -32 16 -50 5 -23 -15 -70 3 -70 27 0 12 13 15 65 15 61 0 65 1 65
23 0 47 -70 86 -119 66z m63 -35 c31 -12 15 -24 -30 -24 -40 0 -45 2 -34 15
13 16 38 19 64 9z"/>
<path d="M1205 4800 c-11 -4 -32 -5 -47 -3 l-28 6 0 -87 c0 -79 2 -86 20 -86
17 0 20 7 20 53 0 29 6 61 13 71 19 25 51 17 55 -14 9 -90 14 -110 28 -110 10
0 14 12 14 43 0 60 9 85 33 93 30 10 47 -20 47 -84 0 -46 3 -53 18 -50 36 7
26 138 -13 164 -22 14 -27 14 -56 0 -28 -14 -34 -14 -52 -1 -24 17 -24 17 -52
5z"/>
<path d="M1695 4800 c-11 -4 -31 -6 -45 -3 l-25 5 0 -116 c0 -104 2 -116 18
-116 13 0 17 8 17 35 l0 35 44 -6 c39 -6 48 -3 70 19 61 61 -2 179 -79 147z
m49 -46 c39 -38 -6 -110 -53 -84 -30 15 -38 56 -16 80 22 24 48 26 69 4z"/>
<path d="M1851 4791 c-12 -12 -21 -26 -21 -31 0 -12 37 -49 66 -66 27 -17 5
-41 -24 -25 -25 13 -49 -8 -30 -27 22 -22 76 -14 93 12 20 31 8 59 -35 81 -39
20 -39 39 0 32 53 -11 52 25 -2 38 -19 5 -32 1 -47 -14z"/>
<path d="M2255 4800 c-11 -4 -32 -5 -47 -3 l-28 6 0 -87 c0 -79 2 -86 20 -86
17 0 20 7 20 53 0 60 17 91 46 85 16 -3 19 -13 22 -71 3 -59 5 -67 22 -67 17
0 20 7 20 53 0 60 17 91 46 85 16 -3 19 -13 22 -71 3 -59 5 -67 22 -67 18 0
20 7 20 75 0 69 -2 76 -26 92 -25 16 -28 16 -56 0 -27 -15 -32 -15 -51 -2 -24
17 -24 17 -52 5z"/>
<path d="M1988 4733 c4 -82 19 -103 73 -103 52 0 69 26 69 107 0 56 -2 63 -20
63 -18 0 -20 -7 -20 -59 0 -61 -14 -86 -43 -75 -18 7 -27 35 -27 92 0 33 -4
42 -17 42 -16 0 -18 -9 -15 -67z"/>
<path d="M497 3774 c-31 -30 -42 -88 -35 -178 9 -111 45 -137 185 -134 82 1
84 2 33 8 -30 4 -45 7 -33 8 16 2 20 7 16 22 -4 14 -14 20 -37 21 -20 1 -24 3
-11 6 11 2 27 7 35 10 8 3 23 5 33 4 15 -2 18 5 17 37 -1 4 14 10 32 14 26 5
22 6 -22 6 -105 -1 -100 -3 -100 47 0 48 10 57 32 27 11 -15 17 -16 35 -7 21
11 21 11 2 23 -14 9 -19 24 -19 52 0 31 -4 40 -17 42 -10 0 5 4 32 8 41 6 32
7 -51 8 -97 2 -102 1 -127 -24z m33 12 c0 -2 -8 -10 -17 -17 -16 -13 -17 -12
-4 4 13 16 21 21 21 13z m124 -205 c4 -5 -3 -7 -14 -4 -23 6 -26 13 -6 13 8 0
17 -4 20 -9z"/>
<path d="M811 3624 c0 -11 3 -14 6 -6 3 7 2 16 -1 19 -3 4 -6 -2 -5 -13z"/>
<path d="M851 3624 c0 -11 3 -14 6 -6 3 7 2 16 -1 19 -3 4 -6 -2 -5 -13z"/>
<path d="M941 3624 c0 -11 3 -14 6 -6 3 7 2 16 -1 19 -3 4 -6 -2 -5 -13z"/>
<path d="M2135 2150 c-17 -11 -41 -37 -54 -60 l-22 -40 33 -20 c41 -25 54 -25
67 -2 6 9 11 12 11 7 0 -6 -4 -15 -9 -20 -12 -13 -18 -126 -8 -143 17 -25 86
-52 138 -52 42 0 50 3 45 16 -3 8 -2 12 4 9 6 -4 10 13 11 42 0 76 18 114 59
128 40 14 41 27 8 86 -21 38 -75 66 -92 49 -15 -15 -58 -12 -80 5 -27 21 -75
18 -111 -5z m32 -7 c-9 -2 -15 -9 -12 -14 4 -5 1 -9 -4 -9 -6 0 -11 7 -11 15
0 9 9 15 23 14 17 -1 18 -2 4 -6z m52 -98 l0 -20 -9 20 c-5 11 -9 29 -9 40 l0
20 9 -20 c5 -11 9 -29 9 -40z m211 10 c0 -5 -5 -3 -10 5 -5 8 -10 20 -10 25 0
6 5 3 10 -5 5 -8 10 -19 10 -25z m-245 -86 c4 -11 4 -23 1 -26 -3 -4 -6 1 -6
10 0 10 -4 17 -10 17 -5 0 -10 5 -10 10 0 18 19 10 25 -11z m35 11 c0 -5 -4
-10 -10 -10 -5 0 -10 5 -10 10 0 6 5 10 10 10 6 0 10 -4 10 -10z"/>
<path d="M2126 1773 c4 -16 16 -38 27 -50 l20 -23 -150 0 -151 0 -31 -32 c-29
-29 -31 -37 -31 -101 0 -79 9 -101 53 -127 l32 -20 -272 0 -273 0 -6 24 c-5
23 -9 25 -57 20 -59 -6 -107 -22 -107 -35 0 -5 -53 -10 -117 -11 l-118 -2 109
-3 c94 -3 111 -6 123 -23 11 -15 19 -17 41 -10 15 4 41 11 59 14 30 5 32 3 35
-26 3 -32 28 -53 28 -24 0 9 5 16 10 16 6 0 10 11 10 25 l0 25 238 0 c131 0
253 -5 274 -10 55 -16 78 -51 78 -119 -1 -59 -9 -76 -50 -104 -21 -15 -53 -17
-233 -17 -191 0 -209 -1 -203 -17 12 -29 19 -130 12 -166 -8 -44 -50 -87 -85
-87 -14 0 -33 -4 -41 -10 -9 -6 -17 -5 -22 3 -5 8 -66 14 -200 17 -162 4 -196
3 -212 -10 -34 -28 -48 -69 -48 -151 0 -78 0 -78 -22 -64 -12 8 -27 11 -34 6
-9 -5 -1 -13 25 -25 32 -14 42 -26 57 -68 13 -36 15 -53 7 -61 -21 -21 -11
-26 22 -11 30 14 33 20 35 67 2 53 22 93 22 45 0 -15 5 -39 10 -54 8 -20 7
-32 -5 -50 -18 -28 -11 -29 30 -6 29 17 30 19 33 107 1 50 5 104 7 121 l5 31
113 6 c61 4 315 7 564 7 290 0 454 4 458 10 4 7 -63 10 -195 10 -159 0 -207 3
-230 15 -49 25 -60 51 -60 142 0 77 2 85 29 115 l29 33 466 3 c293 2 466 6
466 12 0 6 -50 10 -122 10 -67 0 -118 3 -114 7 3 4 16 8 27 10 32 5 67 32 77
61 9 28 6 131 -4 141 -3 3 -11 6 -17 6 -7 1 -11 7 -9 14 2 9 -4 12 -18 8 -11
-3 -20 -1 -20 4 0 12 37 11 61 -1 20 -11 26 -1 9 16 -7 7 -2 36 14 90 13 43
26 105 30 136 l7 57 52 4 52 3 -55 2 c-51 2 -56 5 -70 35 l-15 32 -195 5
c-123 3 -205 10 -223 18 -41 18 -48 15 -41 -15z m257 -99 l37 -6 0 -119 0
-119 -245 0 c-272 0 -302 5 -329 59 -21 39 -20 115 0 147 35 52 50 55 284 49
118 -2 232 -8 253 -11z m126 -209 c-2 -35 -7 -55 -15 -55 -14 0 -25 25 -19 43
30 85 37 87 34 12z m-49 -75 c13 -8 13 -10 -2 -10 -9 0 -20 5 -23 10 -8 13 5
13 25 0z m-170 -62 c0 -14 -19 1 -31 25 -12 22 -12 22 10 3 11 -11 21 -23 21
-28z m-303 10 c-3 -8 -6 -5 -6 6 -1 11 2 17 5 13 3 -3 4 -12 1 -19z m310 -95
c-2 -16 -4 -5 -4 22 0 28 2 40 4 28 2 -13 2 -35 0 -50z m-17 -53 c0 -5 -4 -10
-10 -10 -5 0 -10 5 -10 10 0 6 5 10 10 10 6 0 10 -4 10 -10z m245 -9 c-3 -6
-11 -11 -16 -11 -5 0 -4 6 3 14 14 16 24 13 13 -3z m-350 -21 c4 -6 -10 -10
-34 -10 -22 0 -43 5 -46 10 -4 6 10 10 34 10 22 0 43 -4 46 -10z m255 6 c0 -3
-4 -8 -10 -11 -5 -3 -10 -1 -10 4 0 6 5 11 10 11 6 0 10 -2 10 -4z m-1080
-312 c0 -12 -14 -34 -22 -34 -5 0 -6 5 -2 11 3 6 0 15 -7 20 -10 6 -7 8 9 6
12 0 22 -2 22 -3z"/>
<path d="M950 1150 c0 -11 156 -7 167 4 3 3 -33 6 -80 6 -50 0 -87 -4 -87 -10z"/>
<path d="M361 889 c16 -33 33 -57 38 -55 4 3 27 2 50 -2 l42 -7 -29 -35 -29
-34 20 -31 c16 -24 26 -31 44 -27 16 3 32 -3 49 -18 l24 -23 0 28 0 28 70 -7
69 -6 -18 42 c-13 32 -29 48 -67 68 -128 69 -234 121 -262 130 l-32 8 31 -59z"/>
<path d="M2270 711 c-19 -4 -53 -17 -75 -29 -39 -22 -40 -24 -37 -72 l4 -50
99 0 c54 0 99 1 99 3 0 1 -4 17 -10 36 -7 25 -5 42 5 69 9 19 14 36 13 37 -10
8 -69 12 -98 6z m18 -71 c10 -16 10 -24 0 -40 -19 -29 -23 -25 -23 20 0 45 4
49 23 20z m-28 -20 c0 -11 -4 -20 -9 -20 -14 0 -23 18 -16 30 10 17 25 11 25
-10z"/>
<path d="M365 640 l-28 -5 63 -58 c60 -56 63 -57 86 -42 32 20 35 19 28 -10
-5 -20 -1 -27 17 -34 26 -11 23 -12 -35 -14 -22 -1 -41 -8 -43 -14 -4 -10 264
-13 1317 -13 1053 0 1321 3 1318 13 -4 9 -241 13 -1131 15 -620 1 -1127 5
-1127 10 0 4 12 18 25 31 29 27 33 67 8 75 -89 27 -427 59 -498 46z m285 -150
c0 -5 -4 -10 -10 -10 -5 0 -10 5 -10 10 0 6 5 10 10 10 6 0 10 -4 10 -10z"/>
</g>
</svg>
