<svg width="87" height="83" viewBox="0 0 87 83" fill="none" xmlns="http://www.w3.org/2000/svg">
<path d="M86 45H71.2805C58.4229 45 48 55.4231 48 68.2805V83C68.293 81.4952 84.4952 65.293 86 45Z" fill="#775732"/>
<path d="M41 83V68.2805C41 55.4231 30.5769 45 17.7194 45H3C4.50465 65.293 20.707 81.4952 41 83Z" fill="#775732"/>
<path d="M87 40C85.4952 19.1729 69.293 2.54425 49 1V16.1068C49 29.3026 59.4229 40 72.2805 40H87Z" fill="#775732"/>
<path d="M41 1C20.707 2.50465 4.50465 18.707 3 39H17.7194C30.5769 39 41 28.5769 41 15.7194V1Z" fill="#775732"/>
<path d="M31 42.0001C36.8325 39.1938 41.5858 34.6165 44.4999 29C47.4142 34.6165 52.1673 39.1938 58 42.0001C52.1673 44.8062 47.4142 49.3835 44.4999 55C41.5858 49.3835 36.8325 44.8062 31 42.0001Z" fill="#CA9352"/>
</svg>
